<svg width="20px" height="20px" viewBox="0 0 20 20" version="1.1" xmlns="http://www.w3.org/2000/svg">
  <path d="M16.1388 3.88867C16.2248 3.78711 16.1525 3.63281 16.0197 3.63281L14.4611 3.63281C14.3693 3.63281 14.2814 3.67383 14.2209 3.74414L9.99234 8.78516L5.76383 3.74414C5.70523 3.67383 5.61734 3.63281 5.52359 3.63281L3.965 3.63281C3.83219 3.63281 3.75992 3.78711 3.84586 3.88867L8.97281 10L3.84586 16.1113C3.82661 16.134 3.81426 16.1617 3.81028 16.1911C3.80629 16.2206 3.81084 16.2505 3.82339 16.2775C3.83593 16.3044 3.85594 16.3272 3.88104 16.3431C3.90615 16.359 3.93528 16.3674 3.965 16.3672L5.52359 16.3672C5.61539 16.3672 5.70328 16.3262 5.76383 16.2559L9.99234 11.2148L14.2209 16.2559C14.2795 16.3262 14.3673 16.3672 14.4611 16.3672L16.0197 16.3672C16.1525 16.3672 16.2248 16.2129 16.1388 16.1113L11.0119 10L16.1388 3.88867Z" id="Vector" fill="currentColor" fill-rule="evenodd" stroke="none" />
</svg>
